#!OML:ASF F:\VICON\USERDATA\INSTALL\rory3\rory3.ASF
:FULLY-SPECIFIED
:DEGREES
128
root -13.7134 17.813 2.95814 -3.09017 -11.0091 1.62627
lowerback 9.74781 3.78566 1.10446
upperback 0.167091 5.11456 -0.835584
thorax -5.10555 2.48602 -2.19733
lowerneck -23.1051 -5.18465 -11.4662
upperneck 28.8314 -5.92944 8.54518
head 14.4196 -2.64276 4.30697
rclavicle 2.30513e-014 -1.54058e-014
rhumerus -29.3676 -13.073 -82.4147
rradius 29.2051
rwrist 8.40135
rhand -15.1779 9.49088
rfingers 7.12502
rthumb 10.9931 -20.2013
lclavicle 2.30513e-014 -1.54058e-014
lhumerus -38.0542 12.4986 80.4237
lradius 22.9651
lwrist -14.6287
lhand -18.4643 24.9026
lfingers 7.12502
lthumb 7.82226 54.7379
rfemur 7.1643 2.31286 18.6558
rtibia 45.7507
rfoot 14.6462 9.43076
rtoes 9.99089
lfemur -14.3443 -1.23181 -24.3811
ltibia 17.5781
lfoot 3.70101 -5.38563
ltoes -3.17547
129
root -13.7066 17.8221 3.11298 -3.26685 -11.3461 1.81952
lowerback 9.80721 3.87299 0.973388
upperback 0.2753 5.21308 -0.880186
thorax -5.02879 2.53904 -2.18338
lowerneck -23.2425 -5.13946 -11.4445
upperneck 28.8793 -5.82097 8.44126
head 14.4509 -2.60583 4.28238
rclavicle 2.07388e-014 -3.23025e-015
rhumerus -29.4561 -13.2876 -82.4361
rradius 28.827
rwrist 8.65085
rhand -15.0979 9.54971
rfingers 7.12502
rthumb 11.0703 -20.1383
lclavicle 2.07388e-014 -3.23025e-015
lhumerus -37.696 11.55 81.0783
lradius 23.517
lwrist -13.5052
lhand -18.5554 25.4208
lfingers 7.12502
lthumb 7.73432 55.2593
rfemur 5.90147 2.79317 18.3189
rtibia 48.0722
rfoot 16.6554 9.15959
rtoes 12.2306
lfemur -13.6599 -1.29644 -24.6881
ltibia 17.7172
lfoot 3.16704 -4.82137
ltoes -2.68753
130
root -13.7021 17.8341 3.26746 -3.47543 -11.5304 1.90478
lowerback 9.87794 3.8934 0.931821
upperback 0.413285 5.23428 -0.891225
thorax -4.92556 2.55262 -2.17321
lowerneck -23.4393 -5.1064 -11.4036
upperneck 28.9705 -5.74385 8.36623
head 14.5189 -2.57568 4.26214
rclavicle -1.421e-014 -3.32964e-015
rhumerus -29.4904 -13.4621 -82.4783
rradius 28.4557
rwrist 8.91741
rhand -14.9636 9.55078
rfingers 7.12502
rthumb 11.1999 -20.1303
lclavicle -1.421e-014 -3.32964e-015
lhumerus -37.3913 10.6454 81.6447
lradius 24.0813
lwrist -12.7422
lhand -18.4332 25.6392
lfingers 7.12502
lthumb 7.85224 55.4734
rfemur 4.73607 3.14757 18.1532
rtibia 50.2968
rfoot 18.3234 8.92988
rtoes 12.8676
lfemur -12.935 -1.4433 -24.8879
ltibia 17.9006
lfoot 2.62757 -4.37693
ltoes -2.06647
131
root -13.7003 17.8444 3.42562 -3.7874 -11.6421 1.9455
lowerback 10.0631 3.89006 0.922154
upperback 0.556058 5.22918 -0.875676
thorax -4.88192 2.55151 -2.1586
lowerneck -23.4967 -5.05311 -11.4174
upperneck 28.9649 -5.64947 8.35953
head 14.5165 -2.53656 4.28018
rclavicle 5.18704e-015 1.5207e-014
rhumerus -29.5682 -13.522 -82.5045
rradius 28.1255
rwrist 9.21068
rhand -14.3773 9.90408
rfingers 7.12502
rthumb 11.7653 -19.7455
lclavicle 5.18704e-015 1.5207e-014
lhumerus -37.1395 9.91953 82.086
lradius 24.6018
lwrist -12.4236
lhand -17.9553 26.1187
lfingers 7.12502
lthumb 8.31348 55.9351
rfemur 3.78761 3.35285 18.0331
rtibia 52.4141
rfoot 19.2788 8.71543
rtoes 12.3166
lfemur -12.1095 -1.48385 -25.0679
ltibia 18.0956
lfoot 2.07518 -4.06936
ltoes -2.45239
132
root -13.6995 17.8529 3.57897 -4.07357 -11.6981 2.09078
lowerback 10.2725 3.86018 0.76229
upperback 0.646502 5.17177 -0.858914
thorax -4.92192 2.52605 -2.0571
lowerneck -23.4834 -4.93822 -11.4
upperneck 28.9759 -5.46523 8.29147
head 14.4907 -2.46571 4.28553
rclavicle -2.41648e-015 -2.18663e-015
rhumerus -29.6897 -13.4621 -82.5229
rradius 27.8338
rwrist 9.62097
rhand -13.5322 11.2618
rfingers 7.12502
rthumb 12.5801 -18.3394
lclavicle -2.41648e-015 -2.18663e-015
lhumerus -36.898 9.19494 82.5927
lradius 25.1408
lwrist -11.7709
lhand -18.1794 26.4522
lfingers 7.12502
lthumb 8.09717 56.2771
rfemur 2.80414 3.40303 17.7509
rtibia 54.4237
rfoot 19.3389 8.12934
rtoes 10.112
lfemur -11.2988 -1.45991 -25.3841
ltibia 18.1506
lfoot 1.59309 -3.86727
ltoes -2.77547
133
root -13.6994 17.8587 3.73108 -4.3114 -11.6325 2.26268
lowerback 10.3353 3.79665 0.530718
upperback 0.740786 5.06183 -0.822844
thorax -4.88545 2.47776 -1.87657
lowerneck -23.3762 -4.84273 -11.3885
upperneck 28.9302 -5.29531 8.1647
head 14.4201 -2.41083 4.26179
rclavicle -9.69075e-015 -1.39149e-015
rhumerus -29.7424 -13.2594 -82.5582
rradius 27.4686
rwrist 9.96979
rhand -13.1796 11.7774
rfingers 7.12502
rthumb 12.9201 -17.8027
lclavicle -9.69075e-015 -1.39149e-015
lhumerus -36.7559 8.37872 83.1527
lradius 25.8872
lwrist -10.8782
lhand -18.296 27.0086
lfingers 7.12502
lthumb 7.98463 56.8378
rfemur 1.7985 3.28347 17.4134
rtibia 56.3604
rfoot 18.5898 7.04125
rtoes 8.58434
lfemur -10.5431 -1.5059 -25.7495
ltibia 18.1645
lfoot 1.10593 -3.73895
ltoes -2.93586
134
root -13.6992 17.8705 3.88373 -4.59442 -11.4064 2.52731
lowerback 10.3774 3.69596 0.256241
upperback 0.867895 4.89341 -0.866471
thorax -4.80016 2.40127 -1.74329
lowerneck -23.315 -4.78215 -11.2025
upperneck 28.8968 -5.20477 7.92651
head 14.3655 -2.38481 4.14584
rclavicle -2.19874e-014 -2.5842e-015
rhumerus -29.6396 -13.2187 -82.6123
rradius 26.9161
rwrist 10.1979
rhand -13.1558 10.5902
rfingers 7.12502
rthumb 12.943 -18.9884
lclavicle -2.19874e-014 -2.5842e-015
lhumerus -36.5991 7.57142 83.5787
lradius 26.7223
lwrist -10.0517
lhand -18.1703 27.3089
lfingers 7.12502
lthumb 8.10601 57.1334
rfemur 0.884637 3.00393 16.9825
rtibia 58.1752
rfoot 17.5037 5.87833
rtoes 9.43857
lfemur -9.7419 -1.66449 -26.2373
ltibia 18.1665
lfoot 0.67088 -3.62843
ltoes -3.426
135
root -13.6989 17.877 4.03092 -4.74385 -11.068 2.72044
lowerback 10.3347 3.53031 0.0208394
upperback 0.992081 4.64559 -0.880376
thorax -4.67066 2.28519 -1.58368
lowerneck -23.3828 -4.7039 -11.0984
upperneck 28.9426 -5.08672 7.81264
head 14.3775 -2.33775 4.10493
rclavicle 4.76897e-014 3.57812e-015
rhumerus -29.4453 -13.1791 -82.6603
rradius 26.4573
rwrist 10.6495
rhand -13.375 9.86799
rfingers 7.12502
rthumb 12.7317 -19.7239
lclavicle 4.76897e-014 3.57812e-015
lhumerus -36.3072 7.13865 83.8818
lradius 27.4046
lwrist -9.58092
lhand -18.0641 27.3364
lfingers 7.12502
lthumb 8.20848 57.157
rfemur -0.222227 2.50902 16.6068
rtibia 59.907
rfoot 16.1414 5.23331
rtoes 9.58086
lfemur -9.07146 -1.93085 -26.6458
ltibia 18.1623
lfoot 0.282079 -3.56331
ltoes -3.73908
136
root -13.7005 17.8853 4.17537 -4.77968 -10.6796 2.86001
lowerback 10.2361 3.3431 -0.231171
upperback 1.05113 4.37095 -0.842544
thorax -4.58221 2.15559 -1.35704
lowerneck -23.299 -4.61183 -11.084
upperneck 28.9183 -4.92223 7.68661
head 14.3236 -2.28448 4.08082
rclavicle 5.59082e-017 -1.09332e-014
rhumerus -29.4845 -12.9897 -82.6325
rradius 26.4465
rwrist 11.4354
rhand -13.6473 9.64927
rfingers 7.12502
rthumb 12.4691 -19.9587
lclavicle 5.59082e-017 -1.09332e-014
lhumerus -36.1083 6.73978 84.2088
lradius 28.1288
lwrist -9.22665
lhand -18.0053 27.5625
lfingers 7.12502
lthumb 8.2652 57.3808
rfemur -1.4407 1.91912 16.2799
rtibia 61.5038
rfoot 14.4811 4.86736
rtoes 8.09447
lfemur -8.51565 -2.09653 -26.9934
ltibia 18.164
lfoot -0.124824 -3.65541
ltoes -4.5177
137
root -13.7026 17.8827 4.32011 -4.95576 -10.3395 3.0624
lowerback 10.2536 3.18374 -0.513333
upperback 1.09323 4.12749 -0.837162
thorax -4.57256 2.04051 -1.16017
lowerneck -23.0061 -4.51236 -11.1088
upperneck 28.8328 -4.77628 7.62533
head 14.2042 -2.23729 4.08472
rclavicle 1.85118e-014 3.77691e-015
rhumerus -29.6325 -13.0767 -82.5082
rradius 26.541
rwrist 12.6932
rhand -13.5737 9.47284
rfingers 7.12502
rthumb 12.5401 -20.1308
lclavicle 1.85118e-014 3.77691e-015
lhumerus -35.9992 6.08241 84.5373
lradius 28.8347
lwrist -8.46562
lhand -18.2659 27.0512
lfingers 7.12502
lthumb 8.01367 56.8793
rfemur -2.46376 1.38562 15.8497
rtibia 62.976
rfoot 12.7361 4.41347
rtoes 7.80819
lfemur -7.88703 -2.25014 -27.4117
ltibia 18.3328
lfoot -0.588636 -3.56824
ltoes -5.15623
138
root -13.7023 17.8757 4.45687 -5.1383 -10.0424 3.23219
lowerback 10.3841 3.0405 -0.718028
upperback 1.08561 3.91244 -0.828486
thorax -4.67014 1.93727 -1.01531
lowerneck -22.7674 -4.37773 -11.143
upperneck 28.9408 -4.58297 7.5767
head 14.1759 -2.17101 4.11172
rclavicle -1.16165e-014 9.34288e-015
rhumerus -29.6754 -13.0796 -82.4648
rradius 26.3837
rwrist 12.9631
rhand -13.4406 9.91974
rfingers 7.12502
rthumb 12.6684 -19.676
lclavicle -1.16165e-014 9.34288e-015
lhumerus -35.9301 5.50785 84.813
lradius 29.6036
lwrist -7.71575
lhand -18.1589 26.2348
lfingers 7.12502
lthumb 8.11698 56.059
rfemur -3.51399 0.96271 15.4678
rtibia 64.3004
rfoot 11.0793 3.63093
rtoes 8.19044
lfemur -7.32499 -2.43761 -27.7792
ltibia 18.5311
lfoot -1.08003 -3.44828
ltoes -5.62422
